<svg version="1.1" id="Layer_1" xmlns="http://www.w3.org/2000/svg" xmlns:xlink="http://www.w3.org/1999/xlink" x="0px" y="0px"
	 width="100%" viewBox="0 0 464 86" enable-background="new 0 0 464 86" xml:space="preserve">
<path fill="#000000" opacity="1.000000" stroke="none" 
	d="
M178.000000,1.000000 
	C184.687637,1.000000 191.375290,1.000000 198.654648,1.374690 
	C215.236389,4.972320 226.083069,14.610420 232.861938,30.671604 
	C237.072830,20.378788 242.549149,12.973003 250.631317,8.064089 
	C255.418396,5.156515 260.855286,3.318790 266.000000,0.999999 
	C271.688049,1.000000 277.376068,1.000000 283.660675,1.379213 
	C286.293182,2.189835 288.388947,2.439041 290.354584,3.084535 
	C298.405365,5.728345 304.939880,10.619887 310.481506,16.946898 
	C312.554199,19.313303 314.142792,20.245239 316.345642,16.547495 
	C317.930267,13.887537 320.746338,11.658115 323.491241,10.055713 
	C329.158386,6.747404 335.144867,3.986238 341.000000,0.999998 
	C347.354401,1.000000 353.708801,1.000000 360.654358,1.374314 
	C376.664307,3.860114 392.358185,19.715837 395.070251,35.165821 
	C398.529572,54.872494 391.764130,69.892891 375.014404,80.342400 
	C370.415161,83.211693 365.026459,84.815491 360.000000,87.000000 
	C353.312347,87.000000 346.624725,87.000000 339.374664,86.640579 
	C329.088623,82.007370 319.516815,77.518265 313.667419,67.871628 
	C310.825195,70.852997 308.414612,73.477966 305.900330,75.999519 
	C300.084595,81.832024 292.449158,84.248047 285.000000,87.000000 
	C277.979034,87.000000 270.958099,87.000000 263.376038,86.642220 
	C249.658646,80.720779 238.450256,73.021461 232.928467,57.964607 
	C231.361893,60.648354 230.145096,62.485058 229.172745,64.443146 
	C225.679443,71.478065 220.690140,77.141930 213.656982,80.680252 
	C208.912384,83.067230 203.895233,84.912437 199.000000,87.000000 
	C192.645599,87.000000 186.291214,87.000000 179.360687,86.638260 
	C167.857300,83.036377 158.762924,77.070480 151.904434,67.650520 
	C148.451324,71.303619 145.794235,75.450684 142.018738,77.801575 
	C136.074615,81.502815 129.378021,83.995598 123.000000,87.000000 
	C116.645599,87.000000 110.291206,87.000000 103.363831,86.641228 
	C93.994179,83.200974 85.444832,79.251633 79.625534,71.891579 
	C71.845535,62.051678 67.497604,50.917053 69.915398,37.776234 
	C72.901085,21.548857 81.575584,10.235471 96.854080,3.951538 
	C98.667305,3.205770 100.289337,1.995144 102.000000,0.999999 
	C109.020950,1.000000 116.041893,1.000000 123.648468,1.369487 
	C135.871140,4.257080 145.045670,10.558586 152.067200,20.440647 
	C158.544342,11.727911 166.192581,5.391341 176.512299,2.784268 
	C177.119690,2.630826 177.509140,1.614682 178.000000,1.000000 
M341.131592,63.661064 
	C353.277832,69.559082 366.460632,63.263493 371.018402,53.820431 
	C375.127991,45.306000 374.018097,32.210323 363.193909,25.665751 
	C358.600647,22.888561 353.731018,21.315023 348.373596,22.045231 
	C340.629089,23.100790 335.450867,28.079798 331.231323,33.924496 
	C326.535736,31.847603 322.074799,29.874508 317.210724,27.723091 
	C321.446838,38.372562 320.588531,48.629356 318.020905,59.689713 
	C320.783447,58.447849 322.859924,57.645054 324.812683,56.608990 
	C328.720154,54.535812 332.047791,54.293205 335.038422,58.377750 
	C336.434875,60.284966 338.715973,61.544445 341.131592,63.661064 
M130.011734,59.480347 
	C135.174042,49.873497 140.998459,58.847794 146.764297,58.799099 
	C146.181747,53.793041 145.107239,48.712738 145.135910,43.638668 
	C145.164612,38.554440 146.294601,33.476437 146.954971,28.293091 
	C143.474091,29.770914 140.305786,31.399439 136.950806,32.405190 
	C135.548538,32.825558 132.931625,32.497597 132.255203,31.534681 
	C123.634537,19.262899 106.721504,19.579161 97.800613,29.410574 
	C87.586235,40.667496 91.489105,58.040421 106.088821,64.136826 
	C115.081978,67.892105 122.349113,65.140373 130.011734,59.480347 
M206.555634,30.036255 
	C202.472046,24.865074 196.940063,22.374401 190.547714,22.056273 
	C182.192261,21.640448 171.339005,27.618383 168.625717,37.749199 
	C166.099396,47.181892 169.270828,56.683407 177.805984,62.290356 
	C186.858536,68.237198 198.595657,67.659988 207.678970,56.907578 
	C213.628891,49.864342 213.503189,38.369572 206.555634,30.036255 
M286.402557,63.098438 
	C294.210205,58.459454 298.628326,51.193283 297.747009,42.542721 
	C296.308655,28.424765 283.457886,19.125887 269.625793,23.069763 
	C256.417969,26.835655 249.722610,40.469002 255.328033,52.759117 
	C260.637024,64.399307 273.247925,69.356880 286.402557,63.098438 
z"/>
<path fill="#000000" opacity="1.000000" stroke="none" 
	d="
M0.999999,79.000000 
	C1.000000,77.285645 1.000000,75.571281 1.383518,73.425888 
	C4.116210,68.646591 6.465383,64.298347 8.849348,59.885696 
	C11.462861,61.229748 13.823802,62.642548 16.334517,63.699619 
	C25.630568,67.613480 35.234825,69.762413 45.192360,66.852982 
	C47.095566,66.296890 49.057873,63.949184 49.720078,61.996426 
	C50.042202,61.046516 47.706791,58.322289 46.093193,57.743984 
	C39.927094,55.534077 33.626732,53.620300 27.263208,52.057190 
	C16.339609,49.373974 6.056192,46.047321 2.166547,33.778606 
	C2.056265,33.430752 1.401097,33.255653 1.000000,33.000000 
	C1.000000,32.555557 1.000000,32.111111 1.383237,31.200115 
	C1.510983,28.489042 1.255491,26.244520 1.000000,24.000000 
	C1.000000,23.555555 1.000000,23.111111 1.388739,22.330215 
	C4.031319,18.313707 5.533606,13.685308 8.709355,11.168562 
	C13.899469,7.055455 20.179667,4.317866 26.000000,1.000000 
	C34.354233,1.000000 42.708466,1.000000 51.666763,1.384784 
	C59.090389,2.725212 65.733086,4.129381 71.065582,8.509387 
	C68.354240,14.749377 65.889999,20.420675 63.414978,26.116802 
	C60.317280,24.757708 57.603794,23.334940 54.738789,22.355282 
	C47.219582,19.784174 39.468319,18.568916 31.786772,21.166191 
	C29.820929,21.830881 27.736906,24.458090 27.319616,26.511358 
	C27.074785,27.716049 29.739792,30.392460 31.560852,30.990067 
	C41.451385,34.235786 51.451839,37.167564 61.493435,39.919201 
	C64.521767,40.749039 65.335114,42.268322 65.022484,45.109253 
	C64.224594,52.359852 66.383751,59.182503 70.217422,64.935799 
	C73.235085,69.464470 71.397301,72.453110 68.954521,75.282097 
	C66.568138,78.045776 63.445461,80.408646 60.215508,82.148064 
	C56.383911,84.211479 52.092270,85.420631 48.000000,87.000000 
	C39.979099,87.000000 31.958199,87.000000 23.339695,86.620468 
	C15.494726,83.827286 8.247362,81.413651 0.999999,79.000000 
z"/>
<path fill="#000000" opacity="1.000000" stroke="none" 
	d="
M445.000000,1.000000 
	C451.643402,1.000000 458.286774,1.000000 464.965088,1.000000 
	C464.965088,29.543293 464.965088,58.086636 464.965088,87.000000 
	C458.650818,87.000000 452.294434,87.000000 445.469055,86.531342 
	C445.000000,75.829659 445.000000,65.596642 445.000000,55.340225 
	C434.750366,55.340225 424.928070,55.340225 415.000000,55.340225 
	C415.000000,66.120102 415.000000,76.560051 415.000000,87.000000 
	C408.645599,87.000000 402.291199,87.000000 395.468384,86.531403 
	C395.000000,84.073006 395.050415,82.081696 394.991150,80.093666 
	C394.753082,72.107895 395.179260,64.416290 398.447693,56.747261 
	C401.637299,49.263268 402.093384,40.944118 398.949524,33.163147 
	C395.190491,23.859709 394.422791,14.303095 394.990906,4.481635 
	C395.057831,3.324785 395.000000,2.160720 395.000000,1.000000 
	C401.354401,1.000000 407.708801,1.000000 414.531616,1.468657 
	C415.000000,12.503223 415.000000,23.069132 415.000000,33.659225 
	C425.249268,33.659225 435.072296,33.659225 445.000000,33.659225 
	C445.000000,22.545822 445.000000,11.772911 445.000000,1.000000 
z"/>
<path fill="#FFFFFF" opacity="1.000000" stroke="none" 
	d="
M48.468658,87.000000 
	C52.092270,85.420631 56.383911,84.211479 60.215508,82.148064 
	C63.445461,80.408646 66.568138,78.045776 68.954521,75.282097 
	C71.397301,72.453110 73.235085,69.464470 70.217422,64.935799 
	C66.383751,59.182503 64.224594,52.359852 65.022484,45.109253 
	C65.335114,42.268322 64.521767,40.749039 61.493435,39.919201 
	C51.451839,37.167564 41.451385,34.235786 31.560852,30.990067 
	C29.739792,30.392460 27.074785,27.716049 27.319616,26.511358 
	C27.736906,24.458090 29.820929,21.830881 31.786772,21.166191 
	C39.468319,18.568916 47.219582,19.784174 54.738789,22.355282 
	C57.603794,23.334940 60.317280,24.757708 63.414978,26.116802 
	C65.889999,20.420675 68.354240,14.749377 71.065582,8.509387 
	C65.733086,4.129381 59.090389,2.725212 52.135414,1.384784 
	C68.354225,1.000000 84.708458,1.000000 101.531342,0.999999 
	C100.289337,1.995144 98.667305,3.205770 96.854080,3.951538 
	C81.575584,10.235471 72.901085,21.548857 69.915398,37.776234 
	C67.497604,50.917053 71.845535,62.051678 79.625534,71.891579 
	C85.444832,79.251633 93.994179,83.200974 102.895432,86.641228 
	C84.979103,87.000000 66.958214,87.000000 48.468658,87.000000 
z"/>
<path fill="#FFFFFF" opacity="1.000000" stroke="none" 
	d="
M444.531342,1.000000 
	C445.000000,11.772911 445.000000,22.545822 445.000000,33.659225 
	C435.072296,33.659225 425.249268,33.659225 415.000000,33.659225 
	C415.000000,23.069132 415.000000,12.503223 415.000000,1.468657 
	C424.687561,1.000000 434.375122,1.000000 444.531342,1.000000 
z"/>
<path fill="#FFFFFF" opacity="1.000000" stroke="none" 
	d="
M415.468658,87.000000 
	C415.000000,76.560051 415.000000,66.120102 415.000000,55.340225 
	C424.928070,55.340225 434.750366,55.340225 445.000000,55.340225 
	C445.000000,65.596642 445.000000,75.829659 445.000000,86.531342 
	C435.312439,87.000000 425.624878,87.000000 415.468658,87.000000 
z"/>
<path fill="#FFFFFF" opacity="1.000000" stroke="none" 
	d="
M394.531342,1.000000 
	C395.000000,2.160720 395.057831,3.324785 394.990906,4.481635 
	C394.422791,14.303095 395.190491,23.859709 398.949524,33.163147 
	C402.093384,40.944118 401.637299,49.263268 398.447693,56.747261 
	C395.179260,64.416290 394.753082,72.107895 394.991150,80.093666 
	C395.050415,82.081696 395.000000,84.073006 395.000000,86.531403 
	C383.645782,87.000000 372.291534,87.000000 360.468658,87.000000 
	C365.026459,84.815491 370.415161,83.211693 375.014404,80.342400 
	C391.764130,69.892891 398.529572,54.872494 395.070251,35.165821 
	C392.358185,19.715837 376.664307,3.860114 361.122742,1.374314 
	C372.020905,1.000000 383.041779,1.000000 394.531342,1.000000 
z"/>
<path fill="#FFFFFF" opacity="1.000000" stroke="none" 
	d="
M1.000000,33.468658 
	C1.401097,33.255653 2.056265,33.430752 2.166547,33.778606 
	C6.056192,46.047321 16.339609,49.373974 27.263208,52.057190 
	C33.626732,53.620300 39.927094,55.534077 46.093193,57.743984 
	C47.706791,58.322289 50.042202,61.046516 49.720078,61.996426 
	C49.057873,63.949184 47.095566,66.296890 45.192360,66.852982 
	C35.234825,69.762413 25.630568,67.613480 16.334517,63.699619 
	C13.823802,62.642548 11.462861,61.229748 8.849348,59.885696 
	C6.465383,64.298347 4.116210,68.646591 1.383518,72.997421 
	C1.000000,59.979107 1.000000,46.958210 1.000000,33.468658 
z"/>
<path fill="#FFFFFF" opacity="1.000000" stroke="none" 
	d="
M265.531342,0.999999 
	C260.855286,3.318790 255.418396,5.156515 250.631317,8.064089 
	C242.549149,12.973003 237.072830,20.378788 232.861938,30.671604 
	C226.083069,14.610420 215.236389,4.972320 199.123184,1.374690 
	C221.020889,1.000000 243.041794,1.000000 265.531342,0.999999 
z"/>
<path fill="#FFFFFF" opacity="1.000000" stroke="none" 
	d="
M199.468658,87.000000 
	C203.895233,84.912437 208.912384,83.067230 213.656982,80.680252 
	C220.690140,77.141930 225.679443,71.478065 229.172745,64.443146 
	C230.145096,62.485058 231.361893,60.648354 232.928467,57.964607 
	C238.450256,73.021461 249.658646,80.720779 262.907471,86.642220 
	C241.979111,87.000000 220.958206,87.000000 199.468658,87.000000 
z"/>
<path fill="#FFFFFF" opacity="1.000000" stroke="none" 
	d="
M123.468658,87.000000 
	C129.378021,83.995598 136.074615,81.502815 142.018738,77.801575 
	C145.794235,75.450684 148.451324,71.303619 151.904434,67.650520 
	C158.762924,77.070480 167.857300,83.036377 178.892273,86.638260 
	C160.645767,87.000000 142.291550,87.000000 123.468658,87.000000 
z"/>
<path fill="#FFFFFF" opacity="1.000000" stroke="none" 
	d="
M340.531342,0.999998 
	C335.144867,3.986238 329.158386,6.747404 323.491241,10.055713 
	C320.746338,11.658115 317.930267,13.887537 316.345642,16.547495 
	C314.142792,20.245239 312.554199,19.313303 310.481506,16.946898 
	C304.939880,10.619887 298.405365,5.728345 290.354584,3.084535 
	C288.388947,2.439041 286.293182,2.189835 284.128601,1.379213 
	C302.687561,1.000000 321.375122,1.000000 340.531342,0.999998 
z"/>
<path fill="#FFFFFF" opacity="1.000000" stroke="none" 
	d="
M177.531342,1.000000 
	C177.509140,1.614682 177.119690,2.630826 176.512299,2.784268 
	C166.192581,5.391341 158.544342,11.727911 152.067200,20.440647 
	C145.045670,10.558586 135.871140,4.257080 124.117043,1.369487 
	C141.687561,1.000000 159.375122,1.000000 177.531342,1.000000 
z"/>
<path fill="#FFFFFF" opacity="1.000000" stroke="none" 
	d="
M285.468658,87.000000 
	C292.449158,84.248047 300.084595,81.832024 305.900330,75.999519 
	C308.414612,73.477966 310.825195,70.852997 313.667419,67.871628 
	C319.516815,77.518265 329.088623,82.007370 338.906128,86.640579 
	C321.312439,87.000000 303.624878,87.000000 285.468658,87.000000 
z"/>
<path fill="#FFFFFF" opacity="1.000000" stroke="none" 
	d="
M25.531321,1.000000 
	C20.179667,4.317866 13.899469,7.055455 8.709355,11.168562 
	C5.533606,13.685308 4.031319,18.313707 1.388739,21.996881 
	C1.000000,15.067286 1.000000,8.134572 1.000000,1.000000 
	C9.019755,1.000000 17.041199,1.000000 25.531321,1.000000 
z"/>
<path fill="#FFFFFF" opacity="1.000000" stroke="none" 
	d="
M0.999999,79.494736 
	C8.247362,81.413651 15.494726,83.827286 22.871044,86.620468 
	C15.788342,87.000000 8.576682,87.000000 1.000000,87.000000 
	C1.000000,84.675812 1.000000,82.332642 0.999999,79.494736 
z"/>
<path fill="#FFFFFF" opacity="1.000000" stroke="none" 
	d="
M1.000000,24.437439 
	C1.255491,26.244520 1.510983,28.489042 1.383237,30.866781 
	C1.000000,28.958292 1.000000,26.916586 1.000000,24.437439 
z"/>
<path fill="#FFFFFF" opacity="1.000000" stroke="none" 
	d="
M340.863831,63.379288 
	C338.715973,61.544445 336.434875,60.284966 335.038422,58.377750 
	C332.047791,54.293205 328.720154,54.535812 324.812683,56.608990 
	C322.859924,57.645054 320.783447,58.447849 318.020905,59.689713 
	C320.588531,48.629356 321.446838,38.372562 317.210724,27.723091 
	C322.074799,29.874508 326.535736,31.847603 331.231323,33.924496 
	C335.450867,28.079798 340.629089,23.100790 348.373596,22.045231 
	C353.731018,21.315023 358.600647,22.888561 363.193909,25.665751 
	C374.018097,32.210323 375.127991,45.306000 371.018402,53.820431 
	C366.460632,63.263493 353.277832,69.559082 340.863831,63.379288 
z"/>
<path fill="#FFFFFF" opacity="1.000000" stroke="none" 
	d="
M129.745132,59.745750 
	C122.349113,65.140373 115.081978,67.892105 106.088821,64.136826 
	C91.489105,58.040421 87.586235,40.667496 97.800613,29.410574 
	C106.721504,19.579161 123.634537,19.262899 132.255203,31.534681 
	C132.931625,32.497597 135.548538,32.825558 136.950806,32.405190 
	C140.305786,31.399439 143.474091,29.770914 146.954971,28.293091 
	C146.294601,33.476437 145.164612,38.554440 145.135910,43.638668 
	C145.107239,48.712738 146.181747,53.793041 146.764297,58.799099 
	C140.998459,58.847794 135.174042,49.873497 129.745132,59.745750 
z"/>
<path fill="#FFFFFF" opacity="1.000000" stroke="none" 
	d="
M206.803833,30.307991 
	C213.503189,38.369572 213.628891,49.864342 207.678970,56.907578 
	C198.595657,67.659988 186.858536,68.237198 177.805984,62.290356 
	C169.270828,56.683407 166.099396,47.181892 168.625717,37.749199 
	C171.339005,27.618383 182.192261,21.640448 190.547714,22.056273 
	C196.940063,22.374401 202.472046,24.865074 206.803833,30.307991 
z"/>
<path fill="#FFFFFF" opacity="1.000000" stroke="none" 
	d="
M286.134033,63.381378 
	C273.247925,69.356880 260.637024,64.399307 255.328033,52.759117 
	C249.722610,40.469002 256.417969,26.835655 269.625793,23.069763 
	C283.457886,19.125887 296.308655,28.424765 297.747009,42.542721 
	C298.628326,51.193283 294.210205,58.459454 286.134033,63.381378 
z"/>
</svg>